<?xml version="1.0" encoding="utf-8"?>
<!-- Generator: Adobe Illustrator 16.0.0, SVG Export Plug-In . SVG Version: 6.00 Build 0)  -->
<!DOCTYPE svg PUBLIC "-//W3C//DTD SVG 1.1//EN" "http://www.w3.org/Graphics/SVG/1.1/DTD/svg11.dtd">
<svg version="1.1" id="Layer_1" xmlns="http://www.w3.org/2000/svg" xmlns:xlink="http://www.w3.org/1999/xlink" x="0px" y="0px"
	 height="800px" width="800px" viewBox="0 -103.834 598.563 600.402" enable-background="new 0 -103.834 598.563 600.402"
	 xml:space="preserve">
<g>
	<g>
		<path fill="#FFFFFF" stroke="#000000" stroke-miterlimit="10" d="M72.554,395.975c-2.324,2.26-3.917,5.153-5.562,5.186
			c-16.614,0.35-33.239,0.215-51.386,0.215c4.001-7.368,7.313-14.172,11.308-20.54c2.492-3.987,2.702-7.06,0.06-11.06
			c-3.86-5.835-7.039-12.103-11.244-19.472c10.833,0,20.428,0,30.823,0c0-5.714,0.096-10.466-0.034-15.187
			c-0.113-3.63,0.417-5.992,5.033-6.247c2.091-0.129,5.087-2.294,5.885-4.257c4.224-10.484,10.965-18.804,20.165-25.192
			c2.879-2.006,3.818-3.795,2.779-7.81c-3.57-13.828-2.989-27.382,4.814-40.097c9.352-15.236,28.121-23.059,45.488-18.537
			c12.48,3.263,21.16,17.008,19.48,30.882c-1.554,12.866-10.804,22.249-22.41,22.715c-11.499,0.465-18.4-7.274-16.872-19.434
			c0.875,0.489,1.729,0.764,2.312,1.325c7.899,7.712,16.417,8.044,23.287,0.853c5.801-6.064,4.791-17.651-1.307-24.326
			c-7.545-8.249-23.497-6.88-33.19-1.975c-17.83,9.02-21.584,31.74-16.248,47.34c0.529,1.521,4.804,2.205,7.429,2.509
			c4.203,0.473,8.605-0.267,12.698,0.562c5.085,1.031,7.858,5.184,7.346,10.146c-0.504,4.855-3.417,7.911-9.143,8.249
			c-6.523,0.377-12.385-0.241-16.647-5.611c-3.139-3.963-6.69-3.549-8.995-0.146c-4.31,6.345-7.749,13.274-11.55,19.962
			c0.614,0.738,1.222,1.466,1.833,2.205c6.609-0.676,13.287-0.942,19.815-2.077c10.497-1.81,20.95-3.975,31.297-6.503
			c2.448-0.598,5.498-2.778,6.416-5c8.359-20.18,24.489-28.905,45.02-31.728c7.581-1.04,15.285-1.899,22.61-3.969
			c10.784-3.077,18.497-10.146,20.296-21.594c2.136-13.588-2.821-24.881-14.369-32.346c-15.998-10.352-34.064-12.931-52.396-9.587
			c-14.376,2.631-28.419,7.319-42.422,11.676c-15.343,4.777-30.469,7.81-45.881,0.51c-9.592-4.542-15.991-11.949-19.764-21.658
			c-2.256-5.808,0.797-12.248,6.21-13.983c6.248-2.01,11.66,0.305,13.48,6.672c2.062,7.172,3.93,15.015,12.078,16.601
			c8.715,1.706,18.072,2.674,26.761,1.407c17.873-2.606,35.352-8.325,53.25-10.153c18.262-1.861,36.447,1.84,52.393,11.714
			c24.452,15.122,28.021,52.015,7.254,70.806c-2.112,1.911-4.474,3.543-6.504,6.841c5.37,0,10.75,0,16.133,0
			c0.063,0.917,0.132,1.822,0.188,2.727c-10.665,0.619-21.34,1.236-32.005,1.848c-0.407,0.572-0.817,1.134-1.223,1.713
			c9.68,0.645,8.329,6.887,8.554,12.733c0.344,9.084,1.302,18.142,2.043,27.752c6.864,0,13.577,0,21.475,0
			c-2.865-5.069-4.836-10.184-8.186-14.128c-5.427-6.374-1.626-10.604,1.854-15.611c0.607,0.662,1.161,1.121,1.104,1.224
			c-3.944,6.674-0.491,11.72,3.293,17.02c3.146,4.407,5.564,9.344,8.965,15.187c-9.928,0-18.857,0-28.535,0
			c0,6.241,0.304,11.624-0.168,16.93c-0.163,1.86-2.396,5.122-3.453,5.038c-4.864-0.399-6.287,3.078-8.154,6.072
			c-13.462,21.611-33.582,32.484-58.213,36.005C107.141,413.318,88.34,408.569,72.554,395.975z M192.453,309.474
			c-42.936,1.937-81.402,21.452-123.35,22.567c0.067,0.713,0.133,1.434,0.193,2.153c1.8,0.458,3.601,0.93,5.351,1.362
			c-1.845,0.562-3.727,1.135-5.639,1.708c1.141,15.834,6.88,29.002,19.03,38.83c3.034,2.466,6.997,3.777,11.345,6.043
			c-0.176-0.338,0.338,1.497,0.868,1.497c2.466,0.021,4.981-0.278,7.404-0.813c26.924-5.956,53.813-12.064,80.771-17.899
			c4.409-0.956,6.062-2.854,5.711-7.338c-0.751-9.522-1.271-19.097-1.639-28.638C192.266,322.868,192.453,316.767,192.453,309.474z
			 M61.492,330.895c-5.568,20.932-4.88,40.612,11.191,57.265c12.64,13.109,28.26,17.103,46.273,15.516
			c-1.575-2.79-3.558-5.068-6.066-6.19c-5.658-2.497-12.651-3.122-17.176-6.841c-12.906-10.612-25.994-21.581-30.369-38.895
			C63.62,344.902,62.755,337.851,61.492,330.895z M46.542,354.221c-7.988,0-14.896,0-23.039,0c3.37,5.898,6.047,11.058,9.18,15.905
			c2.27,3.521,2.251,6.497,0.059,10.047c-3.146,5.08-5.857,10.458-9.188,16.496c12.47,0,23.693,0,36.715,0
			c-2.903-1.375-4.169-2.459-5.481-2.521c-7.227-0.344-8.71-4.391-8.369-10.881C46.914,373.788,46.542,364.26,46.542,354.221z
			 M106.244,387.7c21.728,12.528,63.264,4.062,73.081-17.478c-1.241,0-2.43-0.231-3.5,0.037
			C152.793,375.99,129.772,381.787,106.244,387.7z M139.645,303.556c6.333-1.892,13.136-5.478,20.022-5.656
			c12.75-0.312,24.823-2.853,36.507-7.37c9.303-3.592,17.517-8.822,19.574-20.129c-5.014,3.783-9.168,8.605-14.368,10.479
			c-8.706,3.153-18.028,4.776-27.199,6.421C160.693,289.727,147.832,293.084,139.645,303.556z M96.069,223.132
			c-0.732,0.113-1.464,0.222-2.196,0.355c-17.401,3.019-32.662-2.561-37.857-21.504c-0.417-1.517-1.925-3.65-3.152-3.807
			c-2.219-0.295-6.523,0.493-6.58,1.156c-0.304,3.104-0.427,6.95,1.174,9.357c5.424,8.129,12.141,15.428,22.269,17.34
			C78.578,227.704,87.698,228.328,96.069,223.132z M53.828,333.01c-4.667,2.93-5.312,32.791-1.812,55.065
			c4.136,0.391,8.393,0.791,13.467,1.269C56.863,382.479,51.102,353.559,53.828,333.01z M141.265,313.549
			c9.818-2.114,19.642-4.236,29.463-6.35C159.511,303.27,149.544,304.874,141.265,313.549z M122.183,399.038
			c4.387,8.312,9.896,4.184,14.95,3.231c0.097-0.71,0.188-1.44,0.287-2.147C132.562,399.766,127.71,399.429,122.183,399.038z"/>
		<path fill="#FFFFFF" stroke="#000000" stroke-miterlimit="10" d="M237.84,340.131c-6.891-0.669-9.737-4.452-5.465-8.811
			c8.217-8.389,5.577-18.566,5.712-27.688c0.551-38.295-0.073-76.59-0.404-114.9c-0.069-6.746,1.546-13.562-4.609-19.581
			c-4.12-4.046-1.837-7.526,4.516-8.788c14.037-2.782,27.978-6.502,42.15-7.986c14.875-1.562,22.601,6.28,22.438,21.449
			c-0.125,10.6-1.566,21.198-2.689,31.776c-0.203,1.847-1.733,3.58-1.038,4.955c1.697,5.683,4.719,11.339,4.847,17.047
			c0.57,23.452,0.113,46.898,0.311,70.346c0.122,14.906-7.673,24.679-19.558,32.065c-6.723,1.523-13.469,3.07-20.227,4.638
			c-8.769,1.86-17.547,3.72-26.314,5.588L237.84,340.131z M255.157,233.959c0,29.639,0,58.398,0,87.33
			c6.087-1.235,11.604-2.535,17.178-3.453c7.372-1.229,13.644-6.382,13.812-13.656c0.491-20.27,0.498-40.575,0.15-60.856
			c-0.121-7.217-6.827-14.198-11.644-13.357C268.175,231.08,261.772,232.578,255.157,233.959z M254.863,213.411
			c7.091-1.657,13.331-3.772,19.724-4.447c8.396-0.865,10.033-6.343,10.55-12.999c0.281-3.612,0.294-7.272,0.138-10.899
			c-0.288-6.66-7.619-13.47-13.299-12.354c-5.674,1.12-11.295,2.506-17.112,3.802C254.863,188.781,254.863,200.768,254.863,213.411z
			"/>
		<path fill="#FFFFFF" stroke="#000000" stroke-miterlimit="10" d="M90.67,173.026c4.504,11.785,12.651,18.984,25.258,19.494
			c6.911,0.281,13.912-1.07,20.864-1.825c4.863-0.534,9.699-1.311,14.284-1.938c-0.386-0.437-1.971-2.243-3.562-4.042
			c0.024,0.592,0.05,1.185,0.074,1.774c-9.736,1.465-19.448,3.749-29.224,4.191c-13.58,0.615-24.394-9.071-24.881-22.569
			c-0.839-23.227-0.731-46.491-0.845-69.744c-0.137-31.226-0.194-62.45-0.095-93.672c0.063-20.033,8.728-28.903,28.823-31.891
			c12.964-1.923,24.069-0.215,31.654,11.377c1.823,2.784,2.925,6.593,2.905,9.921c-0.084,14.272-0.756,28.53-0.995,42.802
			c-0.012,0.91,1.855,1.85,3.065,2.975c-3.446,4.481-7.391,5.563-13.039,3.768c-5.652-1.793-9.014-4.356-9.014-10.663
			c0-8.662-0.437-17.316-0.562-25.973c-0.143-10.748-6.321-15.36-17.012-12.628c-3.013,0.768-6.055,1.433-9.717,2.291
			c0,5.914-0.006,12.279,0,18.653c0.044,48.828,0.169,97.671,0.067,146.499c-0.017,6.249,0.985,11.31,7.506,13.729
			c7.096,2.638,16.484,0.776,20.623-4.356c0.927-1.146,1.667-2.8,1.717-4.244c0.464-12.74,0.791-25.474,1.026-38.218
			c0.019-1.11-0.923-2.245-2.39-3.133c0,1.755,0,3.503,0,5.301c-12.079-0.935-12.224-1.224-9.439-12.254
			c0.599-2.38,0.369-4.981,0.56-8.073c7.45-0.672,14.873-1.724,22.289-1.711c1.729,0,4.941,3.629,4.953,5.606
			c0.176,25.376,0.066,50.757-0.408,76.137c-0.101,4.849-5.597,5.005-7.721,3.156c-3.347-2.896-5.345-1.127-8.197-0.143
			c-13.972,4.822-27.956,7.513-40.729-2.955C93.13,186.278,90.388,180.316,90.67,173.026z"/>
		<path fill="#FFFFFF" stroke="#000000" stroke-miterlimit="10" d="M516.13,226.176c1.823,7.746,4.507,14.129,4.647,20.555
			c0.957,43.556,1.404,87.12,1.965,130.677c0.05,3.571,1.216,6.165,3.29,9.39c2.69,4.197,2.077,10.497,2.888,15.903
			c-0.684,0.324-1.339,0.65-2.009,0.975c-1.32-0.902-2.753-1.682-3.947-2.713c-2.721-2.361-4.951-5.758-8.088-7.108
			c-7.166-3.098-8.849-7.913-8.877-15.465c-0.138-43.8-0.866-87.592-1.464-131.378c-0.122-8.503-4.514-11.911-12.898-10.185
			c-4.055,0.828-9.549,0.604-11.667,3.133c-2.046,2.441-0.657,7.81-0.682,11.894c-0.025,6.16,0.057,12.319,0.013,18.484
			c-0.05,5.211-0.185,9.918,4.36,14.274c4.565,4.371,2.861,8.192-3.403,9.261c-6.478,1.11-13.052,1.963-19.611,2.396
			c-6.146,0.409-5.063-4.904-3.174-6.873c8.013-8.312,4.666-18.274,4.772-27.6c0.312-24.861-0.106-49.734,0.416-74.597
			c0.134-6.085,0.307-11.021-4.335-15.934c-2.553-2.688-2.73-7.476,3.734-7.854c13.158-0.77,26.279-2.277,39.45-2.533
			c9.03-0.169,17.472,6.398,18.917,15.971c1.779,11.819,2.021,24.008,1.467,35.977C521.685,217.818,517.743,222.646,516.13,226.176z
			 M478.766,224.341c6.449-0.669,11.558-1.255,16.702-1.713c7.072-0.619,10.347-4.097,10.787-11.357
			c0.356-6.109,1.07-12.192,1.265-18.3c0.19-6.38,0.801-14.37-6.009-16.744c-6.171-2.146-13.637-0.685-20.515-0.461
			c-0.785,0.02-2.131,2.314-2.143,3.567C478.712,194.065,478.766,208.799,478.766,224.341z"/>
		<path fill="#FFFFFF" stroke="#000000" stroke-miterlimit="10" d="M432.226,32.012c-0.054-1.344-0.332-2.72-0.11-4.019
			c1.276-7.514-1.561-12.486-8.867-14.827c-5.342,1.749-10.671,3.491-16.014,5.233c-1.673,3.99-4.745,7.975-4.795,11.989
			c-0.362,34.909-0.115,69.825-0.301,104.733c-0.03,4.911,1.524,7.502,6.087,9.196c11.823,4.397,24.106-3.66,24.1-16.091
			c-0.013-15.061,0.115-30.122-0.24-45.179c-0.057-2.562-2.212-5.065-3.391-7.604c-0.601,0.29-1.201,0.583-1.793,0.869
			c1.433,2.153,2.875,4.29,4.967,7.416c-6.108,0.268-7.895-2.042-8.122-6.319c-0.535-10.784,2.461-14.298,13.274-15.348
			c1.817-0.176,3.658-0.281,5.441-0.622c4.789-0.905,6.862,1.201,6.85,5.857c-0.053,28.957,0,57.904-0.218,86.851
			c-0.039,6.588-3.974,8.473-10.125,5.754c-1.198-0.529-2.943-0.354-4.251,0.079c-6.023,1.979-11.93,4.302-17.959,6.255
			c-15.711,5.092-30.271-2.252-33.451-17.339c-0.683-3.236,2.032-7.046,2.045-10.593c0.173-34.917,0.454-69.831-0.013-104.741
			c-0.355-27.767,29.352-41.053,51.17-31.967c7.676,3.197,11.448,9.705,12.411,17.551c0.669,5.358,0.134,10.861,0.134,16.38
			c-6.771,2.398-12.213,0.698-17.046-3.758L432.226,32.012z M434.029,156.02c-10.062,2.021-20.126,4.045-30.11,6.048
			C414.321,162.57,424.6,161.694,434.029,156.02z"/>
		<path fill="#FFFFFF" stroke="#000000" stroke-miterlimit="10" d="M358.244,161.975c0.063-20.055,0.19-40.113,0.129-60.179
			c-0.035-8.582-3.953-11.49-12.746-9.966c-14.528,2.527-14.528,2.527-14.521,17.049c0.006,15.508-0.185,31.012,0.172,46.509
			c0.075,3.202,1.617,6.756,3.506,9.45c3.735,5.376,2.997,9.1-3.174,10.499c-7.27,1.654-14.625,2.894-24.303,4.761
			c1.789-4.646,3.121-7.868,4.264-11.159c1.141-3.267,2.971-6.598,3.002-9.913c0.331-36.915,0.409-73.835,0.466-110.745
			c0.006-4.006-0.46-8.021-1.351-12.109c-0.313,1.561-0.645,3.125-1.014,5.017c-5.712-2.297-7.369-6.481-6.453-11.648
			c0.919-5.252,3.531-8.064,9.756-8.706c12.126-1.25,24.071-4.17,36.142-5.999c11.278-1.7,19.819,5.637,20.887,16.679
			c1.062,11.064,1.075,22.348,0.171,33.416c-0.415,5.048-4.131,9.83-6.637,15.342c6.75,5.771,7.491,14.481,7.357,23.559
			c-0.173,11.854-0.173,23.706-0.136,35.563c0.013,5.883-1.106,11.57,4.495,16.671c4.432,4.024,2.227,8.304-3.621,10.477
			c-6.807,2.516-12.264,0.928-16.605-4.78L358.244,161.975z M331.059,81.003c6.274-1.427,11.56-2.211,16.539-3.88
			c8.025-2.693,10.74-6.791,10.837-15.186c0.079-6.81-0.19-13.631,0.026-20.435c0.178-5.662-0.892-12.055-6.719-12.383
			c-6.797-0.375-13.79,2.539-20.631,4.275c-0.447,0.111-0.473,2.395-0.46,3.659c0.104,8.602,0.307,17.208,0.395,25.818
			C331.111,68.474,331.059,74.075,331.059,81.003z"/>
		<path fill="#FFFFFF" stroke="#000000" stroke-miterlimit="10" d="M384.486,309.988c-2.896,0-5.814,0-9.48,0
			c0.254-2.789-0.415-5.859,0.817-7.426c8.645-10.88,8-24.41,10.358-36.83c4.531-23.881,7.541-48.048,11.194-72.16
			c-9.111-5.631-4.441-14.333-5.086-21.234c7.172-0.977,13.756-1.623,20.252-2.841c7.538-1.405,11.635,1.291,13.047,8.877
			c4.837,26.132,9.805,52.235,14.692,78.363c1.032,5.555,1.536,11.243,3.01,16.677c1.326,4.841,3.8,9.363,5.482,14.108
			c1.061,3.001,1.62,6.178,2.438,9.396c-8.058,1.708-14.867,3.3-21.729,4.524c-5.864,1.068-8.639-1.678-6.128-6.576
			c4.001-7.782-0.331-14.317-1.216-21.72c-7.842,1.439-14.944,2.739-22.786,4.178c0.866,6.281-2.959,12.753,2.334,19.25
			c1.633,2.013-0.282,6.918-0.58,10.484C395.559,308.053,390.031,309.021,384.486,309.988z M420.824,252.494
			c-5.686-15.082-5.852-30.905-9.818-46.868c-2.702,16.938-5.226,32.842-7.835,49.264
			C410.324,253.922,416.146,253.132,420.824,252.494z"/>
		<path fill="#FFFFFF" stroke="#000000" stroke-miterlimit="10" d="M456.049,4.297c0-2.47,0-4.945,0-8.426
			c12.82-0.945,25.444-2.016,38.093-2.739c6.378-0.366,12.777-0.035,19.163-0.124c5.518-0.073,7.908,2.583,7.588,8.028
			c-0.152,2.956,0.333,5.969-0.062,8.876c-0.313,2.421-1.596,6.778-2.233,6.739c-2.966-0.178-7.726-0.834-8.473-2.681
			c-4.52-11.141-12.937-7.15-20.649-6.131c-2.442,0.325-4.846,0.898-7.191,2.147c3.61-0.3,7.222-0.576,10.838-0.92
			c6.146-0.58,11.545-1.202,15.386,6.156c1.727,3.31,8.179,4.15,12.041,5.904c-5.508,5.791-12.379,3.399-17.394-8.337
			c-6.908,0.559-14.087,1.148-22.591,1.841c0,15.796,0,31.033,0,46.623c8.45,0,15.91,0.248,23.32-0.086
			c4.754-0.215,6.012,1.996,5.768,6.111c-0.223,3.863,0.365,7.848-5.743,7.879c-7.447,0.049-14.906,0.901-22.697,1.431
			c0,20.656,0,40.394,0,60.659c7.078,0,14.091,0.286,21.059-0.199c1.767-0.125,4.004-2.371,4.904-4.196
			c2.733-5.551,6.424-8.526,13.571-6.834c0,6.279,0.389,12.393-0.122,18.438c-0.381,4.448-4.054,5.381-8.075,5.583
			c-14.344,0.72-28.672,1.631-42.938,3.739c16.825-0.697,33.637-1.396,50.454-2.096c0.19,0.391,0.394,0.777,0.572,1.162
			c-2.671,1.188-5.289,3.216-8.038,3.424c-17.953,1.375-35.925,2.401-53.903,3.417c-1.762,0.099-3.579-0.623-5.373-0.966
			c-0.02-0.721-0.041-1.451-0.066-2.184c2.824-0.562,5.63-1.135,7.761-1.558c-1.492-1.226-4.758-2.65-4.925-4.356
			c-0.24-2.488,1.055-6.048,2.973-7.613c3.622-2.981,4.438-6.276,4.438-10.659c-0.077-38.764,0.11-77.525-0.077-116.286
			c-0.02-2.653-2.358-5.303-3.626-7.95C458.566,6.842,457.3,5.569,456.049,4.297z"/>
		<path fill="#FFFFFF" stroke="#000000" stroke-miterlimit="10" d="M232.146,133.38c-0.15-16.3-0.575-32.605-0.344-48.899
			c0.141-10.376-0.525-21.265,2.355-30.982c4.347-14.689,17.625-20.958,31.518-24.031c7.291-1.624,15.313-1.077,22.845-0.155
			c7.864,0.958,12.123,6.997,13.543,14.415c1.074,5.545,1.364,11.303,1.421,16.972c0.141,14.813-0.329,29.632,0.006,44.438
			c0.272,11.781-5.035,20.59-11.022,30.429c-8.282,13.626-21.058,15.367-33.647,17.441c-15.119,2.484-29.901-4.854-29.166-21.771
			c0.938,0.728,1.779,1.375,2.614,2.028c2.612,10.873,11.992,16.723,25.062,13.958C244.914,147.241,237.952,141.248,232.146,133.38z
			 M285.354,83.079c-0.035,0-0.06,0-0.092,0c0-5.018-0.021-10.027,0-15.035c0.025-5.228-0.059-10.457,0.188-15.674
			c0.281-5.831-3.263-8.089-8.124-8.924c-2.655-0.456-5.494-0.478-8.179-0.125c-13.949,1.874-23.123,5.8-22.632,23.554
			c0.488,17.704,0.007,35.438-0.006,53.146c-0.007,7.945,3.513,11.858,11.56,11.793c4.664-0.045,9.414-0.953,13.925-2.211
			c9.617-2.681,13.262-7.774,13.33-17.832C285.412,102.207,285.354,92.646,285.354,83.079z M236.381,117.119
			c0.42,0.05,0.836,0.105,1.265,0.155c0-9.442,0-18.89,0-28.333c-0.423,0-0.845,0-1.265-0.006
			C236.381,98.327,236.381,107.728,236.381,117.119z"/>
		<path fill="#FFFFFF" stroke="#000000" stroke-miterlimit="10" d="M330.701,306.933c8.658-1.926,16.144-3.377,23.49-5.352
			c1.528-0.408,2.664-2.65,3.734-4.224c1.504-2.21,2.333-5.141,4.291-6.721c1.931-1.547,4.901-1.776,7.412-2.599
			c0.691,2.248,1.978,4.484,1.978,6.715c-0.037,17.07,2.922,16.281-17.34,20.25c-15.486,3.037-30.859,6.656-46.47,10.045
			c-2.736-4.65-0.976-8.294,2.287-10.996c4.169-3.457,4.873-7.631,4.833-12.694c-0.192-30.567-0.039-61.116-0.326-91.68
			c-0.024-2.561-2.421-5.122-3.766-7.656c-1.423-2.662-2.908-5.299-4.36-7.949c2.193-1.197,4.244-2.975,6.59-3.5
			c16.774-3.818,33.624-7.307,50.429-11.064c5.14-1.153,7.365,1.09,7.729,5.799c0.27,3.398,0.19,6.829,0.147,10.246
			c-0.044,3.007,0.947,7.283-3.744,7.056c-2.918-0.154-5.901-2.307-8.529-4.033c-1.045-0.688-1.229-2.694-1.823-4.176
			c-7.645,1.656-14.97,3.04-22.16,4.946c-1.799,0.484-4.444,2.638-4.476,4.078c-0.351,12.91-0.203,25.822-0.203,40.179
			c8.413-1.745,15.447-2.93,22.325-4.732c3.469-0.911,6.7-1.891,7.222,2.797c0.467,4.261,1.806,9.555-4.826,10.932
			c-6.208,1.273-12.494,2.228-18.591,3.917c-2.192,0.598-5.546,2.859-5.596,4.451C330.523,275.694,330.701,290.465,330.701,306.933z
			"/>
		<path fill="#FFFFFF" stroke="#000000" stroke-miterlimit="10" d="M211.253,55.813c-6.821,0.9-13.164,1.381-19.316,2.732
			c-2.309,0.51-5.896,2.975-5.959,4.649c-0.497,13.36-0.274,26.751-0.274,41.021c7.807-0.902,14.798-1.325,21.609-2.64
			c4.319-0.836,7.297-0.771,7.92,4.259c0.619,5.027-0.244,8.993-6.528,9.71c-7.394,0.844-14.731,2.159-22.576,3.341
			c0,16.581,0,32.861,0,50.138c8.229-1.25,16.371-2.407,24.456-3.852c0.811-0.145,1.533-2.022,1.884-3.225
			c2.224-7.585,4.206-9.287,13.229-10.267c0,6.771,0.998,13.704-0.497,20.045c-0.601,2.539-6.515,4.756-10.321,5.439
			c-16.394,2.943-32.898,5.29-49.368,7.762c-1.129,0.164-3.396-0.385-3.403-0.652c-0.062-2.393-0.679-6.045,0.604-6.997
			c10.471-7.803,5.795-18.701,5.973-28.323c0.47-26.435,0.288-52.879,0.313-79.32c0.006-4.653,1.057-9.674-5.408-11.793
			c-1.271-0.423-2.067-4.35-1.82-6.516c0.132-1.141,2.887-2.576,4.623-2.857c17.48-2.862,34.993-5.552,52.502-8.208
			c4.072-0.616,6.746,1.157,7.022,5.409c0.256,3.864,0.412,7.79-0.026,11.611c-0.274,2.35-1.723,6.425-2.727,6.451
			c-2.834,0.073-5.949-1.147-8.473-2.653C213.146,60.158,212.468,57.769,211.253,55.813z M186.598,176.58
			c-0.035-0.56-0.065-1.129-0.106-1.685c-4.36,0-8.732,0-14.297,0c-0.344,0.404-1.651,1.947-2.962,3.491
			c0.229,0.469,0.45,0.938,0.678,1.401C175.478,178.718,181.04,177.65,186.598,176.58z"/>
		<path fill="#FFFFFF" stroke="#000000" stroke-miterlimit="10" d="M441.871,396.872c4.788,2.778,8.382,4.331,11.304,6.716
			c3.838,3.105,3.672,9.896,0.215,12.749c-3.678,3.047-8.778,2.27-11.825-2.196c-7.645-11.19-19.962-13.189-30.971-11.381
			c-31.337,5.146-62.296,12.559-93.456,18.731c-19.564,3.874-39.194,7.483-58.905,10.537c-21.054,3.253-42.225,5.712-63.353,8.522
			c-25.147,3.33-50.235,7.23-75.456,9.853c-18.252,1.888-36.498,0.84-52.5-9.94c-3.708-2.52-7.887-5.484-9.713-9.269
			c-1.974-4.066-2.03-9.504,2.989-12.829c4.432-2.943,11.092-2.071,14.43,2.854c6.781,9.993,16.437,15.553,27.602,18.649
			c14.34,3.969,28.784,5.288,43.825,2.932c16.961-2.662,34.273-2.993,51.297-5.293c13.144-1.767,26.058-5.129,39.116-7.563
			c20.536-3.821,41.16-7.209,61.645-11.3c17.987-3.577,35.84-7.909,53.763-11.821c22.811-4.994,45.683-9.656,68.443-14.854
			c16.368-3.734,32.898-4.484,49.5-3.299c15.37,1.094,29.78,5.681,42.199,15.214c5.768,4.441,7.426,10.619,4.602,15.473
			c-3.022,5.193-7.473,6.465-12.827,4.34c-1.745-0.696-3.422-2.188-4.538-3.728C485.344,400.682,465.46,396.497,441.871,396.872z
			 M478.447,396.019c10.421,5.3,18.844,12.65,25.55,22.2c0.761,1.075,5.032,0.934,6.69-0.147c2.837-1.834,2.812-4.574,0.105-7.402
			C502.018,401.472,490.395,398.578,478.447,396.019z M91.857,445.55c0.201-0.597,0.406-1.197,0.613-1.784
			c-5.503-4.375-11.104-8.638-16.465-13.185c-2.585-2.19-4.548-5.122-7.136-7.3c-1.156-0.98-3.585-1.772-4.663-1.203
			c-1.166,0.631-2.211,3.088-1.931,4.478c0.457,2.254,1.482,5.307,3.22,6.229C74.1,437.359,83.032,441.348,91.857,445.55z"/>
		<path fill="#FFFFFF" stroke="#000000" stroke-miterlimit="10" d="M181.178,452.621c10.715-4.343,19.964-1.415,29.144,2.007
			c20.665,7.681,42.181,11.56,64.044,12.631c19.482,0.951,39.199,1.644,58.529-0.269c17.253-1.712,34.402-6.203,51.082-11.178
			c28.798-8.581,54.554-23.55,78.967-40.875c0.75-0.528,1.72-0.878,2.229-1.568c4.923-6.635,9.831-4.628,15.357,0.446
			c-35.416,30.881-76.817,50.219-122.004,59.646C297.801,486.137,238.394,479.553,181.178,452.621z"/>
		<path fill="#FFFFFF" stroke="#000000" stroke-miterlimit="10" d="M551.942,65.753c25.328,47.432,34.292,97.149,30.908,148.978
			c-3.456,53.161-21.144,101.68-52.458,145.025c-0.598-8.286-1.224-15.867,3.678-23.868c17.91-29.249,29.934-60.983,35.652-94.902
			c4.521-26.849,5.312-53.937,1.727-80.861c-3.493-26.144-11.284-51.313-20.961-75.898C547.748,77.233,546.19,73.272,551.942,65.753
			z"/>
		<path fill="#FFFFFF" stroke="#000000" stroke-miterlimit="10" d="M163.114,17.075c12.946-4.773,27.218-3.647,41.117-7.803
			c-6.425-1.589-12.477-2.359-17.909-4.611c-7.231-2.993-14.028-7.042-20.925-10.812c-4.985-2.733-6.148-7.775-4.629-12.386
			c0.948-2.864,4.423-5.782,7.419-6.883c5.183-1.905,9.114,1.337,12.022,5.551c9.149,13.227,23.211,17.009,39.167,20.577
			c-3.135-3.292-5.527-5.261-7.217-7.714c-2.564-3.733-2.989-7.795,1.017-10.921c3.669-2.856,9.755-1.643,11.592,2.949
			c4.388,10.959,14.598,13.09,23.896,16.033c3.635,1.153,8.386-0.887,12.558-1.78c17.75-3.809,35.491-7.698,53.197-11.638
			c20.353-4.533,40.676-9.162,61.019-13.723c6.612-1.488,13.205-3.294,19.898-4.064c2.487-0.288,5.279,1.972,7.92,3.067
			c-1.896,2.067-3.516,5.531-5.733,5.981c-15.275,3.08-30.729,5.265-46.019,8.264c-11.748,2.303-23.264,5.752-35.011,8.036
			c-20.479,3.997-41.037,7.619-61.604,11.16c-20.296,3.503-40.635,6.771-60.979,10.014c-8.279,1.322-16.596,2.393-24.919,3.399
			c-1.848,0.218-3.794-0.3-5.698-0.484C163.236,18.538,163.18,17.805,163.114,17.075z M199.533,3.376
			c0.316-0.553,0.635-1.114,0.948-1.675c-3.888-2.146-8.186-3.789-11.56-6.563c-4.829-3.958-8.755-9.019-13.553-13.023
			c-1.502-1.254-4.582-0.602-6.946-0.823c0,2.519-0.914,5.604,0.215,7.417c1.573,2.525,4.379,4.773,7.169,5.942
			C183.573-2.102,191.611,0.514,199.533,3.376z"/>
		<path fill="#FFFFFF" stroke="#000000" stroke-miterlimit="10" d="M52.124,63.09c4.994,5.625,1.763,10.771-0.265,16.164
			c-5.387,14.377-10.619,28.826-15.696,43.312c-0.915,2.603-0.804,5.563-1.155,8.363c-1.569-1.281-3.133-2.552-4.7-3.821
			c0.939,1.773,1.879,3.554,3.206,6.076c-1.986-0.405-3.009-0.617-4.05-0.835c-0.072,0.36-0.254,0.74-0.202,1.077
			c0.57,3.398,2.222,7,1.611,10.156c-4.894,25.412-5.201,50.85-3.215,76.632c2.432,31.632,12.049,61.033,23.704,90.105
			c1.489,3.708,0.627,8.358,0.854,12.582c-0.991,0.4-1.982,0.795-2.971,1.19c-1.714-1.899-3.974-3.529-5.072-5.733
			c-9.748-19.529-18.228-39.822-20.256-61.519c-0.642-6.835-3.944-12.338-4.335-18.842c-0.431-7.235-2.271-14.416-2.351-21.632
			c-0.181-15.682-0.835-31.536,0.915-47.065c2.076-18.343,5.314-36.734,10.229-54.504c4.229-15.29,11.399-29.788,17.611-44.482
			C47.151,67.575,49.978,65.546,52.124,63.09z"/>
		<path fill="#FFFFFF" stroke="#000000" stroke-miterlimit="10" d="M492.759-16.926c-29.575,3.417-59.317,5.797-88.674,10.539
			c-31.459,5.083-62.492,12.714-93.836,18.647c-27.657,5.239-55.447,9.797-83.229,14.416c-19.682,3.271-39.415,6.19-59.15,9.108
			c-1.326,0.195-2.855-0.927-4.285-1.442c1.339-0.881,2.574-2.297,4.016-2.564c39.672-7.28,79.451-14.03,119.038-21.765
			c30.868-6.025,61.407-13.638,92.238-19.803c21.108-4.22,42.378-7.932,63.746-10.438c22.322-2.614,44.826-3.555,67.269-5.117
			c3.34-0.236,7.737-0.733,7.803,4.172c0.062,5.14-4.156,5.786-8.326,5.761c-5.482-0.041-10.952-0.006-16.43-0.006
			C492.882-15.93,492.828-16.426,492.759-16.926z"/>
		<path fill="#FFFFFF" stroke="#000000" stroke-miterlimit="10" d="M470.553-33.536c-2.778,4.344-11.907,5.037-17.869,1.599
			c-11.813-6.822-23.508-13.905-35.606-20.166c-20.861-10.774-42.894-18.528-66.201-21.795c-18.16-2.548-36.482-5.224-54.745-5.452
			c-15.078-0.188-30.201,3.124-45.299,4.897c-0.682,0.08-1.357,0.386-2.018,0.334c-4.135-0.308-10.371,2.785-10.969-4.2
			c-0.529-6.144,5.458-5.414,9.499-5.8c18.519-1.767,37.048-4.662,55.573-4.761c34.299-0.175,67.568,6.459,99.712,18.765
			c21.397,8.191,41.121,19.294,60.068,31.977c2.597,1.745,5.38,3.219,8.085,4.819L470.553-33.536z"/>
		<path fill="#FFFFFF" stroke="#000000" stroke-miterlimit="10" d="M478.675,309.263c1.123,1.452,3.328,3.134,3.863,5.249
			c0.919,3.656-1.47,4.828-5.061,5.402c-33.452,5.312-66.909,10.585-100.273,16.394c-23.883,4.167-47.585,9.236-71.411,13.695
			c-23.184,4.345-46.395,8.523-69.63,12.556c-9.161,1.586-18.419,2.67-27.659,3.783c-1.22,0.146-2.583-0.935-3.875-1.438
			c1.11-1.085,2.071-2.893,3.341-3.147c11.785-2.339,23.658-4.25,35.443-6.595c37.755-7.489,75.488-15.044,113.211-22.688
			c28.691-5.809,57.304-11.938,86.022-17.593C453.967,312.638,465.485,311.288,478.675,309.263z"/>
		<path fill="#FFFFFF" stroke="#000000" stroke-miterlimit="10" d="M409.821,369.322c1.874-2.94,4.235-5.688,5.521-8.859
			c2.192-5.427,3.168-11.414,5.789-16.587c1.166-2.318,5.063-3.273,7.729-4.854c0.573,2.854,2.364,6.178,1.464,8.433
			c-1.795,4.548-5.201,8.447-7.663,12.766c-0.719,1.261-0.51,3.052-0.713,4.599c1.555-0.522,3.659-0.603,4.538-1.669
			c1.836-2.255,2.54-5.605,4.629-7.457c2.715-2.402,6.262-3.982,9.658-5.402c0.536-0.217,3.413,2.713,3.145,3.407
			c-1.198,3.223-2.912,6.319-4.883,9.154c-0.925,1.317-2.831,1.967-3.96,3.482c4.673,0.869,7.535-1.662,9.85-5.458
			c1.989-3.3,3.513-7.377,6.428-9.472c2.586-1.847,6.81-1.466,10.31-2.063c-0.951,3.407-1.321,7.165-3.028,10.14
			c-1.148,1.976-4.204,2.855-6.396,4.216c0.459,0.716,0.913,1.429,1.37,2.146c4.572-3.113,9.148-6.208,14.269-9.688
			c-2.242,11.185-13.096,16.231-21.726,10.729c-5.548,3.388-10.902,7.769-18.3,2.547c-1.752-1.241-6.259,1.399-10.206,2.446
			c-1.122,3.007-2.665,7.166-4.214,11.326c-0.853,0.006-1.717,0.013-2.57,0.024c-0.413-2.866-0.822-5.746-1.332-9.25
			c-1.174-0.338-3.047-0.878-5.195-1.49c-0.885,3.562-1.339,6.968-2.658,10.016c-0.62,1.4-2.919,2.068-4.463,3.068
			c-0.32-1.547-0.854-3.082-0.88-4.632c-0.012-1.649,0.473-3.331,0.951-6.246c-5.986,3.909-9.966,11.121-17.006,5.222
			c-0.657,0.324-1.132,0.435-1.427,0.726c-3.543,3.656-7.804,6.39-12.701,3.987c-2.026-0.994-4.301-5.585-3.569-7.271
			c2.156-4.957,5.54-9.454,9.003-13.673c0.669-0.813,3.922,0.485,5.967,0.816c-0.804,3.114-1.62,6.23-2.424,9.34
			c-0.77-0.09-1.535-0.2-2.306-0.294c-0.55-1.378-1.091-2.753-1.632-4.128c-0.701,0.013-1.423,0.025-2.13,0.037
			c-0.16,3.313-0.326,6.645-0.484,9.963c3.124-1.675,6.477-3.019,9.232-5.147c1.401-1.102,1.861-3.54,2.511-5.458
			c1.862-5.483,5.809-9.759,11.251-9.249c2.706,0.248,4.942,5.586,7.889,9.273c1.285-3.774,2.665-8.261,4.322-12.623
			c1.586-4.199,3.125-8.49,5.423-12.287c0.805-1.312,3.813-1.295,5.821-1.887c0.575,1.987,2.13,4.37,1.517,5.873
			c-2.038,4.981-4.926,9.62-7.331,14.46c-0.872,1.758-1.319,3.727-1.954,5.598C408.101,368.413,408.961,368.873,409.821,369.322z
			 M393.17,369.737c0.528-1.134,1.057-2.274,1.578-3.402c-1.682-0.444-4.169-1.834-4.888-1.196
			c-2.199,1.911-3.907,4.509-5.336,7.122c-0.294,0.509,1.492,2.165,2.308,3.293C388.934,373.616,391.063,371.673,393.17,369.737z"/>
		<path fill="#FFFFFF" stroke="#000000" stroke-miterlimit="10" d="M230.58,395.561c-1.437,2.218-4.079,4.427-4.109,6.656
			c-0.095,8.127-4.921,10.708-11.742,11.317c-1.639,0.147-4.132-0.074-4.93-1.118c-3.29-4.359-5.743-2.091-8.977,0.081
			c-2.317,1.575-5.444,1.949-8.207,2.859c-0.413-2.916-1.87-6.191-0.997-8.663c1.52-4.293,1.801-10.228,9.211-11.743
			c-2.018,5.707-3.67,10.394-5.314,15.081c0.889,0.359,1.777,0.716,2.662,1.084c1.501-3.043,3.046-6.078,4.491-9.146
			c1.351-2.853,2.6-5.778,3.899-8.668c0.817,0.271,1.64,0.528,2.456,0.793c-0.726,3.632-1.451,7.244-2.177,10.869
			c0.407,0.266,0.815,0.547,1.223,0.814c2.696-4.681,5.393-9.364,8.089-14.04c0.756,0.379,1.501,0.747,2.251,1.123
			c-1.476,4.975-2.945,9.949-4.778,16.158c9.157-3.902,7.979-12.509,11.531-18.286c4.045,0,7.992,0,11.917,0
			c-0.284,4.071-0.578,8.146-1.029,14.421c2.709-5.993,4.479-10.447,6.716-14.625c0.76-1.422,2.712-2.209,4.107-3.288
			c0.262,1.632,1.025,3.403,0.678,4.888c-0.828,3.604-2.18,7.095-3.594,11.497c9.556-3.09,5.542-15.331,12.873-18.637
			c0.788,0.483,1.58,0.959,2.368,1.449c-1.313,4.193-2.63,8.366-3.941,12.551c0.477,0.215,0.951,0.431,1.42,0.649
			c1.002-2.243,1.887-4.537,3.031-6.703c4.107-7.757,8.096-15.604,12.646-23.109c0.941-1.54,4.094-1.744,6.225-2.559
			c0.324,2.35,1.727,5.325,0.788,6.968c-3.497,6.075-7.901,11.626-11.676,17.54c-1.413,2.232-2.048,4.944-3.04,7.436
			c0.791,0.428,1.576,0.872,2.361,1.318c3.013-3.166,6.021-6.318,9.78-10.262c0.028,11.472-8.316,17.293-18.376,12.777
			c-2.855,3.932-5.895,8.146-8.988,12.341c-1.079,1.456-2.059,3.609-3.491,4.024c-2.674,0.744-5.642,0.473-8.481,0.625
			c0.619-2.524,1.05-5.103,1.977-7.506c0.294-0.737,1.958-0.966,2.996-1.438c-0.373-0.44-0.738-0.895-1.107-1.338
			c-3.774-0.44-7.551-0.894-11.322-1.343c0.535-4.091,1.063-8.182,1.599-12.275C231.236,395.944,230.905,395.744,230.58,395.561z"/>
		<path fill="#FFFFFF" stroke="#000000" stroke-miterlimit="10" d="M307.828,377.694c-1.313,4.644-2.602,9.165-3.896,13.706
			c0.682,0.237,1.357,0.459,2.036,0.7c2.167-5.469,4.322-10.922,6.94-17.578c3.69,0.475,7.747,1,11.801,1.522
			c-0.848,3.999-1.702,7.992-2.549,11.999c0.406,0.287,0.804,0.587,1.21,0.872c1.62-2.553,3.623-4.962,4.789-7.712
			c2.486-5.847,6.393-9.581,12.718-11.104c1.62-0.4,3.355-2.503,4.019-4.21c1.727-4.485,2.888-9.186,5.699-13.439
			c1.517,11.108-5.28,20.497-5.605,31.733c1.989-2.269,3.984-4.516,6.49-7.35c-1.07,8.847-4.724,10.662-11.163,13.247
			c-5.968,2.396-12.611-0.682-18.234,4.23c-3.021,2.638-4.907-1.865-4.667-4.862c0.244-3,1.492-5.915,2.302-8.884
			c-0.682-0.281-1.356-0.578-2.033-0.866c-1.491,3.197-3.531,6.26-4.347,9.632c-1.62,6.631-4.521,9.209-11.316,9.196
			c-2.052-0.013-4.095,0.778-6.162,0.906c-2.111,0.112-5.151,0.675-6.146-0.434c-1.561-1.741-2.774-4.892-2.349-7.122
			C289.262,381.688,294.227,378.412,307.828,377.694z M332.628,388.479c0.854,0.356,1.696,0.719,2.549,1.081
			c2.181-3.931,4.555-7.772,6.416-11.846c0.443-1.001-0.409-3.404-1.364-3.995c-0.816-0.49-3.068,0.278-3.99,1.203
			C332.372,378.731,330.104,383.107,332.628,388.479z M291.82,394.031c1.192,0.581,2.371,1.16,3.56,1.747
			c2.011-3.76,4.107-7.478,5.931-11.328c0.225-0.496-0.828-2.178-1.583-2.412c-0.841-0.275-2.604,0.172-2.94,0.828
			C294.962,386.491,293.447,390.287,291.82,394.031z"/>
		<path fill="#FFFFFF" stroke="#000000" stroke-miterlimit="10" d="M215.042-68.993c-1.104-0.417-2.221-0.841-1.627-0.617
			c-3.165,2.478-5.189,4.611-7.657,5.908c-15.88,8.35-32.044,16.168-47.724,24.864c-9.917,5.494-9.616,6.036-21.972,2.264
			c0.998-1.096,1.702-2.222,2.708-2.9c17.998-12.068,37.062-22.062,57.529-29.27c4.936-1.739,9.962-3.286,15.066-4.427
			c1.352-0.3,3.112,1.227,4.682,1.904C215.707-70.512,215.383-69.754,215.042-68.993z"/>
		<path fill="#FFFFFF" stroke="#000000" stroke-miterlimit="10" d="M529.795,368.604c30.562-43.709,49.637-91.66,55.177-144.797
			c5.58-53.379-4.379-104.079-26.883-154.082c15.504,20.37,35.956,90.763,29.109,153.897
			C581.334,277.522,562.258,325.557,529.795,368.604z"/>
		<path fill="#FFFFFF" stroke="#000000" stroke-miterlimit="10" d="M226.792,473.843c39.826,8.397,79.686,11.557,120.23,4.392
			c40.076-7.092,76.89-21.95,111.507-42.94c-33.323,24.314-70.774,38.997-111.188,45.315
			C306.859,486.934,266.408,486.222,226.792,473.843z"/>
		<path fill="#FFFFFF" stroke="#000000" stroke-miterlimit="10" d="M56.179,64.881c0-2.917,0-5.825,0-8.893c0.758,0,1.756,0,2.751,0
			c-0.647-0.281-1.302-0.562-1.942-0.84c0.988-3.81,1.098-8.167,3.115-11.323c5.962-9.334,12.646-18.205,19.104-27.208
			c0.724-1.003,1.807-1.745,3.21-3.07c1.482,8.976,0.156,15.804-5.625,22.582c-6.288,7.362-10.747,16.287-16.029,24.504
			c-1.052,1.636-2.206,3.21-3.309,4.815C57.029,65.256,56.596,65.067,56.179,64.881z"/>
		<path fill="#FFFFFF" stroke="#000000" stroke-miterlimit="10" d="M470.783-33.306c-5.311-4.37-10.24-9.373-16.041-13.007
			c-28.625-17.938-59.171-31.523-92.26-38.977c-7.662-1.724-15.473-2.794-23.849-4.281C359.743-96.784,453.557-57.986,477.815-32
			c-3.003-0.641-5.133-1.097-7.263-1.548C470.553-33.536,470.783-33.306,470.783-33.306z"/>
		<path fill="#FFFFFF" stroke="#000000" stroke-miterlimit="10" d="M12.838,217.087c3.532,18.038,5.979,36.383,10.896,54.033
			c4.901,17.619,12.285,34.55,17.822,51.996C23.851,290.008,14.869,254.495,12.838,217.087z"/>
		<path fill="#FFFFFF" stroke="#000000" stroke-miterlimit="10" d="M263.822,334.652c6.752-1.554,13.499-3.107,20.227-4.638
			c2.398-1.095,4.835-2.222,7.638-3.527c-3.869,9.542-54.22,22.894-62.699,16.498c3.203-1.033,6.024-1.95,8.853-2.854l-0.332,0.122
			C246.275,338.379,255.054,336.513,263.822,334.652z"/>
		<path fill="#FFFFFF" stroke="#000000" stroke-miterlimit="10" d="M369.802,313.88c-3.997,5.402-59.756,18.646-67.656,14.886
			C325.757,323.557,347.61,318.761,369.802,313.88z"/>
		<path fill="#FFFFFF" stroke="#000000" stroke-miterlimit="10" d="M225.807,179.561c-3.991,1.408-7.879,3.45-11.988,4.116
			c-16.971,2.751-34.011,5.128-51.045,7.48c-1.139,0.157-2.458-0.919-3.7-1.429c1.285-0.755,2.5-1.969,3.876-2.192
			c16.695-2.738,33.4-5.335,50.109-7.976c3.95-0.626,7.896-1.279,11.854-1.927C225.206,178.281,225.507,178.916,225.807,179.561z"/>
		<path fill="#FFFFFF" stroke="#000000" stroke-miterlimit="10" d="M334.605-91.32c-31.033-1.891-61.926-1.034-92.641,3.972
			C272.551-95.185,303.479-95.571,334.605-91.32z"/>
		<path fill="#FFFFFF" stroke="#000000" stroke-miterlimit="10" d="M23.086,112.669c-4.042,28.192-8.08,56.377-11.661,81.346
			C10.056,168.316,15.554,140.271,23.086,112.669z"/>
		<path fill="#FFFFFF" stroke="#000000" stroke-miterlimit="10" d="M227.79,65.497c-6.168,7.874-12.864,6.518-19.504-3.279
			c-6.7,0.965-13.481,1.949-20.271,2.931c-0.197-0.673-0.392-1.344-0.582-2.016c2.665-0.979,5.28-2.172,8.017-2.889
			c3.036-0.798,6.178-1.477,9.298-1.605c2.009-0.086,4.718,0.231,5.994,1.5C218.115,67.45,218.006,67.559,227.79,65.497z"/>
		<path fill="#FFFFFF" stroke="#000000" stroke-miterlimit="10" d="M129.493-36.842c15.439-14.558,34.047-23.708,53.305-31.759
			C165.028-58.016,147.263-47.428,129.493-36.842z"/>
		<path fill="#FFFFFF" stroke="#000000" stroke-miterlimit="10" d="M454.896,298.256c10.506-1.007,21.04-2.019,31.552-3.032
			c0.21,0.356,0.426,0.683,0.657,1.026c-1.824,1.152-3.544,2.986-5.515,3.33c-8.028,1.377-16.104,2.46-24.209,3.225
			c-1.21,0.113-2.614-1.97-3.94-3.027C453.913,299.274,454.404,298.766,454.896,298.256z"/>
		<path fill="#FFFFFF" stroke="#000000" stroke-miterlimit="10" d="M354.554,200.863c-7.409,1.623-13.924,3.058-20.427,4.484
			c-0.294-0.396-0.595-0.779-0.885-1.173c1.043-1.033,1.941-2.662,3.162-2.98c5.264-1.325,10.574-2.469,15.929-3.189
			c1.373-0.182,3.426,1.048,4.401,2.266c4.004,4.973,8.522,7.484,14.938,4.057c0.179,0.599,0.382,1.197,0.56,1.797
			c-2.415,1.121-4.729,2.714-7.269,3.26C358.558,210.735,356.199,206.188,354.554,200.863z"/>
		<path fill="#FFFFFF" stroke="#000000" stroke-miterlimit="10" d="M384.486,309.988c5.545-0.967,11.072-1.936,16.615-2.917
			c1.147-0.05,2.292-0.102,3.434-0.166c0.172,0.484,0.372,0.956,0.558,1.441c-1.749,1.107-3.369,2.725-5.28,3.209
			c-7.416,1.898-14.895,3.566-22.404,5c-1.235,0.235-2.806-1.191-4.219-1.847c1.172-1.058,2.18-2.567,3.568-3.058
			C379.207,310.754,381.885,310.512,384.486,309.988z"/>
		<path fill="#FFFFFF" stroke="#000000" stroke-miterlimit="10" d="M407.234,18.4c5.343-1.749,10.672-3.491,16.014-5.233
			c2.932,3.466,5.865,6.922,8.811,10.38c-0.547,0.742-1.104,1.49-1.663,2.236c-7.288-7.312-15.251-7.319-24.418-2.035
			C406.584,21.172,406.903,19.783,407.234,18.4z"/>
		<path fill="#FFFFFF" stroke="#000000" stroke-miterlimit="10" d="M528.634,406.362c-4.037,5.491-4.604,5.238-9.142,0
			c-2.742-3.171-6.797-5.146-10.049-7.902c-2.059-1.753-3.71-3.97-5.553-5.969c0.744-0.767,1.485-1.544,2.236-2.307
			c5.107,4.216,10.112,8.575,15.379,12.601C523.596,404.382,526.272,405.203,528.634,406.362z"/>
		<path fill="#FFFFFF" stroke="#000000" stroke-miterlimit="10" d="M304.156,183.37c12.38-2.681,23.536-5.089,35.159-7.598
			C335.189,181.647,311.919,187.075,304.156,183.37z"/>
		<path fill="#FFFFFF" stroke="#000000" stroke-miterlimit="10" d="M358.047,161.756c0.657,6.879,5.196,8.321,11.023,7.681
			c3.991-0.437,7.956-1.152,13.546-1.983c-6.497,6.277-13.344,7.037-19.857,6.248c-2.512-0.299-4.759-4.648-6.572-7.501
			c-0.44-0.684,1.316-2.771,2.058-4.219C358.244,161.975,358.047,161.756,358.047,161.756z"/>
		<path fill="#FFFFFF" stroke="#000000" stroke-miterlimit="10" d="M420.506,306.715c1.047-1.159,1.951-3.128,3.168-3.364
			c4.838-0.902,9.805-1.132,14.685-1.858c4.601-0.682,9.149-1.682,13.896-1.798c-8.745,7.932-20.496,4.874-30.346,8.721
			C421.45,307.844,420.99,307.282,420.506,306.715z"/>
		<path fill="#FFFFFF" stroke="#000000" stroke-miterlimit="10" d="M333.139,260.076c9.977-2.649,19.955-5.3,29.613-7.86
			c-0.007,4.287-13.803,9.707-28.938,9.962C333.592,261.477,333.36,260.776,333.139,260.076z"/>
		<path fill="#FFFFFF" stroke="#000000" stroke-miterlimit="10" d="M482.538,78.63c8.838-0.691,17.688-1.388,27.493-2.167
			C506.053,82.126,488.199,83.865,482.538,78.63z"/>
		<path fill="#FFFFFF" stroke="#000000" stroke-miterlimit="10" d="M356.317,103.213c-6.283-9.757-14.565-4.506-22.287-3.217
			c0.963-4.325,5.751-6.019,14.04-6.441C354.808,93.207,355.72,97.57,356.317,103.213z"/>
		<path fill="#FFFFFF" stroke="#000000" stroke-miterlimit="10" d="M431.999,31.789c3.156,9.138,11.511,5.76,18.313,6.966
			c-2.658,5.748-7.557,5.035-11.356,4.219c-3.163-0.675-6.087-3.343-8.567-5.689c-0.557-0.537,1.173-3.448,1.837-5.272
			L431.999,31.789z"/>
		<path fill="#FFFFFF" stroke="#000000" stroke-miterlimit="10" d="M187.837,121.338c8.494-1.598,16.986-3.193,25.48-4.792
			c0.145,0.709,0.288,1.42,0.438,2.133c-7.757,5.211-16.949,3.815-25.507,5.31C188.111,123.107,187.974,122.227,187.837,121.338z"/>
		<path fill="#FFFFFF" stroke="#000000" stroke-miterlimit="10" d="M501.231,244.139c-6.931,0-13.158,0-19.4,0
			c0.72-4.815,0.72-4.759,12.586-4.892C498.482,239.208,501.723,239.711,501.231,244.139z"/>
		<path fill="#FFFFFF" stroke="#000000" stroke-miterlimit="10" d="M526.069,24.817c5.224,4.051,3.341,6.737-0.815,8.787
			c1.792,2.282,3.29,4.173,5.217,6.613c-8.308,0.672-5.574-7.781-10.075-10.339C522.194,28.261,524.018,26.642,526.069,24.817z"/>
		<path fill="#FFFFFF" stroke="#000000" stroke-miterlimit="10" d="M61.128,31.712c6.641-8.643,13.271-17.287,19.911-25.928
			c0.581,0.444,1.17,0.893,1.75,1.337c-6.679,8.604-13.351,17.213-20.028,25.817C62.213,32.534,61.672,32.123,61.128,31.712z"/>
		<path fill="#FFFFFF" stroke="#000000" stroke-miterlimit="10" d="M456.049,4.297c1.251,1.272,2.518,2.545,3.763,3.815
			c1.025,1.818,2.058,3.647,3.297,5.839c-7.071,0.405-11.352-4.514-9.336-9.654C453.869,4.042,455.264,4.291,456.049,4.297z"/>
		<path fill="#FFFFFF" stroke="#000000" stroke-miterlimit="10" d="M484.796,417.682c-6.63,4.9-13.255,9.796-19.886,14.703
			c-0.4-0.535-0.811-1.071-1.217-1.613c6.502-5.056,13.018-10.134,19.52-15.196C483.751,416.275,484.268,416.987,484.796,417.682z"
			/>
		<path fill="#FFFFFF" stroke="#000000" stroke-miterlimit="10" d="M303.782,196.846c3.256,3.68,6.355,7.201,9.77,11.081
			C306.184,209.066,303.078,205.098,303.782,196.846z"/>
		<path fill="#FFFFFF" stroke="#000000" stroke-miterlimit="10" d="M173.749,452.722c5.633,2.747,11.275,5.484,16.908,8.219
			c-0.241,0.547-0.481,1.094-0.723,1.638c-5.837-2.51-11.659-5.028-17.49-7.525C172.873,454.266,173.313,453.5,173.749,452.722z"/>
		<path fill="#FFFFFF" stroke="#000000" stroke-miterlimit="10" d="M123.704,335.845c-9.818-1.925-14.464,0.234-16.335,7.617
			c2.107,0.135,4.138,0.255,7.846,0.466c-4.479,3.701-8.081,6.446-11.163,1.963c-1.215-1.773,0.273-6.944,2.209-8.951
			c2.473-2.579,6.716-4.999,10.066-4.834c5.744,0.285,10.566-4.242,16.977-1.733c2.615,1.02,7.319-3.325,12.189-5.784
			c-0.866,6.192-5.221,8.008-8.89,8.573c-8.096,1.249-10.794,6.543-13.062,13.321c-2.072,6.184-4.879,12.216-8.104,17.912
			c-1.932,3.405-4.809,6.865-8.153,8.719c-2.261,1.25-6.47,0.516-8.983-0.842c-1.306-0.698-1.998-5.675-0.885-6.993
			c1.82-2.185,5.313-2.969,8.099-4.35c0.354,0.73,0.705,1.471,1.053,2.197c-2.05,1.399-4.1,2.803-6.471,4.409
			c3.082,4.112,6.109,4.125,8.439,0.608c2.983-4.478,5.563-9.273,7.816-14.178"/>
		<path fill="#FFFFFF" stroke="#000000" stroke-miterlimit="10" d="M134.127,363.055c2.173-3.343,3.368-5.152,4.544-6.987
			c0.967-1.515,1.658-3.312,2.912-4.521c2.671-2.601,5.974-6.536,9.605-2.849c3.976,4.045-1.671,6.07-3.605,8.632
			c-1.155,1.529-3.129,2.44-3.989,4.917c1.952-1.05,4.001-1.948,5.837-3.172c1.783-1.19,3.334-2.727,5.59-4.586
			c-1.339,7.312-7.87,11.834-14.223,11.159c-2.086-0.215-4.292,0.645-6.441,1.031c-1.802,0.331-3.602,0.703-5.399,1.047
			c0.085-1.888-0.115-3.862,0.347-5.67c0.423-1.656,1.553-3.127,2.385-4.7c-0.553-0.358-1.105-0.702-1.654-1.064
			c-3.048,5.331-6.104,10.656-9.152,15.987c-0.952-0.521-1.906-1.049-2.852-1.577c4.713-11.226,9.425-22.456,14.14-33.678
			c0.972,0.355,1.944,0.712,2.917,1.069c-1.148,3.835-2.302,7.682-3.466,11.566C142.411,351.119,133.56,356.896,134.127,363.055z"/>
		<path fill="#FFFFFF" stroke="#000000" stroke-miterlimit="10" d="M112.336,377.051c11.6-2.866,23.202-5.734,34.808-8.601
			c0.132,0.51,0.257,1.019,0.383,1.541c-11.732,3.09-23.467,6.181-35.197,9.274C112.329,378.528,112.329,377.788,112.336,377.051z"
			/>
		<path fill="#FFFFFF" stroke="#000000" stroke-miterlimit="10" d="M136.068,321.888c7.976-1.873,15.949-3.745,23.928-5.618
			c0.101,0.445,0.201,0.879,0.306,1.312c-7.938,1.981-15.878,3.942-23.815,5.911C136.349,322.958,136.212,322.423,136.068,321.888z"
			/>
		<path fill="#FFFFFF" stroke="#000000" stroke-miterlimit="10" d="M482.207,179.893c13.146-4.768,20.53-5.022,22.5,8.239
			C498.502,177.963,489.856,181.113,482.207,179.893z"/>
		<path fill="#FFFFFF" stroke="#000000" stroke-miterlimit="10" d="M355.809,43.198c-4.525-14.062-14.778-5.374-23.334-7.613
			C346.21,29.356,357.863,29.512,355.809,43.198z"/>
		<path fill="#FFFFFF" stroke="#000000" stroke-miterlimit="10" d="M251.463,53.137c7.521-7.91,16.184-8.372,24.764-8.328
			c4.953,0.025,7.415,3.66,7.809,10.521C273.979,45.422,263.23,50.809,251.463,53.137z"/>
	</g>
</g>
</svg>
